<?xml version="1.0" standalone="no"?>
<!DOCTYPE svg PUBLIC "-//W3C//DTD SVG 20010904//EN"
 "http://www.w3.org/TR/2001/REC-SVG-20010904/DTD/svg10.dtd">
<svg version="1.0" xmlns="http://www.w3.org/2000/svg"
 width="1970.000000pt" height="1478.000000pt" viewBox="0 0 1970.000000 1478.000000"
 preserveAspectRatio="xMidYMid meet">

<g transform="translate(0.000000,1478.000000) scale(0.100000,-0.100000)"
fill="#000000" stroke="none">
<path d="M9310 11510 c-11 -11 -20 -26 -20 -33 0 -7 9 -38 20 -70 11 -31 20
-72 20 -91 0 -48 -67 -176 -102 -196 -38 -21 -57 -6 -85 64 -28 74 -39 86 -74
86 -40 0 -66 -39 -51 -78 6 -15 18 -54 27 -86 9 -33 30 -86 46 -117 56 -112
59 -281 8 -460 -31 -111 -63 -115 -134 -17 -66 89 -105 175 -118 262 -12 79
-24 96 -63 96 -56 0 -68 -72 -34 -205 20 -79 42 -123 124 -256 75 -121 73
-158 -18 -278 -23 -30 -59 -91 -81 -135 -53 -107 -64 -109 -171 -22 -131 105
-135 119 -90 280 24 84 28 111 23 175 -7 99 -26 152 -61 169 -23 12 -31 11
-53 -3 -23 -16 -25 -21 -19 -64 19 -130 18 -139 -3 -211 -23 -75 -56 -120 -89
-120 -27 0 -99 81 -128 145 -24 51 -24 57 -14 162 5 59 19 145 30 191 31 130
25 162 -30 162 -37 0 -56 -25 -85 -110 -55 -162 -77 -348 -51 -428 37 -109
139 -224 305 -339 214 -149 244 -177 294 -268 62 -113 61 -146 -6 -182 -28
-16 -65 -18 -307 -19 -151 -1 -286 -4 -300 -8 -45 -14 -96 -55 -121 -99 -23
-39 -24 -50 -21 -172 4 -170 15 -194 117 -260 54 -35 79 -59 94 -89 12 -22 51
-156 87 -296 36 -140 74 -286 85 -325 25 -91 24 -127 -2 -151 -19 -17 -43 -20
-238 -25 -119 -3 -249 -11 -290 -19 -59 -11 -93 -11 -175 -2 -127 15 -212 15
-346 0 -93 -10 -119 -9 -201 6 -125 23 -152 32 -176 59 -32 34 -114 248 -123
319 -9 73 -30 128 -110 293 -32 66 -70 158 -84 205 -42 142 -81 161 -227 111
-142 -49 -172 -31 -204 120 -23 115 -89 279 -124 311 -49 44 -84 45 -192 3
-111 -43 -169 -47 -229 -16 -51 26 -85 26 -150 1 -60 -24 -89 -25 -116 -6 -17
13 -19 28 -20 119 -1 57 -5 144 -8 193 -14 169 -19 184 -66 184 -52 0 -55 -12
-58 -284 -4 -477 -8 -693 -16 -1167 l-9 -477 22 -30 c39 -55 78 -62 436 -77
61 -2 319 -7 575 -10 408 -6 481 -4 593 11 123 16 133 16 233 -1 86 -15 128
-17 232 -10 162 11 228 11 382 1 98 -7 147 -5 226 8 139 22 406 22 541 -1 98
-17 108 -16 234 1 119 17 146 18 273 6 179 -16 462 -9 566 15 48 10 95 14 130
11 107 -12 487 -18 638 -11 162 8 182 14 182 58 -1 52 5 52 -357 59 -334 6
-527 14 -571 24 -35 7 -62 40 -62 77 0 17 13 86 30 152 16 66 52 214 80 328
27 114 56 220 64 235 17 33 58 71 108 101 43 26 73 71 83 123 8 40 -10 233
-26 284 -10 33 -48 73 -89 95 -26 14 -361 37 -546 38 -87 1 -105 4 -128 22
-39 30 -36 84 7 141 45 58 84 83 168 103 114 28 351 158 428 236 52 52 109
145 130 215 28 88 44 211 31 234 -17 31 -45 42 -74 29 -28 -13 -31 -21 -41
-89 -8 -56 -43 -168 -56 -176 -23 -14 -48 10 -74 72 -29 69 -52 89 -91 80 -41
-11 -48 -39 -25 -107 67 -191 -18 -286 -330 -371 -47 -13 -91 -22 -98 -20 -33
11 23 116 131 246 52 62 130 200 167 296 25 63 32 105 46 260 21 222 32 266
86 350 77 119 94 165 94 260 0 72 -5 94 -28 145 -38 81 -67 95 -107 55z m55
-2145 c88 -4 169 -8 181 -10 19 -4 22 -16 33 -108 6 -57 9 -111 5 -121 -12
-30 -92 -37 -469 -41 -185 -2 -321 -7 -337 -14 -15 -5 -32 -19 -37 -30 -15
-28 2 -69 32 -76 13 -4 120 -7 238 -8 212 -2 214 -2 271 -30 69 -34 79 -55 68
-158 -8 -78 -73 -356 -115 -494 -43 -140 -82 -160 -353 -177 -260 -17 -394 8
-439 83 -29 47 -186 656 -178 689 14 53 51 76 148 90 71 11 87 23 87 66 0 48
-20 55 -162 52 -154 -4 -287 13 -305 38 -20 27 -18 217 2 234 19 15 688 23
810 9 60 -7 100 -6 160 5 44 8 107 13 140 10 33 -2 132 -6 220 -9z m-3486 -29
c16 -19 50 -120 67 -200 8 -38 26 -96 40 -130 14 -33 51 -128 83 -211 32 -82
72 -181 89 -220 36 -81 92 -278 92 -322 0 -16 -6 -37 -12 -46 -16 -21 -144
-66 -169 -60 -11 3 -25 24 -35 52 -9 25 -34 91 -54 146 -21 55 -43 127 -50
160 -6 33 -26 87 -44 120 -35 65 -49 104 -150 412 -64 194 -66 203 -52 237 11
27 25 38 68 54 62 24 111 28 127 8z m-440 -15 c9 -5 27 -31 38 -58 12 -26 40
-88 62 -138 48 -110 106 -274 126 -363 9 -36 31 -100 50 -141 40 -89 112 -288
125 -344 12 -54 -4 -93 -42 -106 -73 -26 -102 -5 -141 100 -14 36 -34 83 -45
105 -39 78 -161 430 -172 496 -12 77 -16 88 -64 190 -41 87 -69 184 -60 211 3
10 25 27 47 38 49 22 53 22 76 10z m935 -433 c8 -13 25 -50 37 -83 12 -33 33
-76 46 -95 12 -19 23 -39 23 -44 0 -5 18 -49 41 -98 27 -58 44 -113 49 -157 5
-37 18 -88 29 -115 12 -26 21 -58 21 -70 0 -47 -83 -91 -128 -67 -11 6 -29 25
-40 43 -22 37 -83 210 -107 308 -9 36 -36 106 -60 155 -66 138 -71 200 -17
229 42 23 89 20 106 -6z m-1074 -82 c6 -22 29 -90 52 -151 22 -60 54 -148 70
-195 16 -47 48 -125 70 -173 75 -164 62 -203 -66 -200 -100 2 -147 20 -168 63
-16 31 -18 70 -18 353 0 196 4 326 10 337 15 29 38 13 50 -34z"/>
<path d="M6474 11391 c-154 -40 -214 -70 -272 -139 -26 -30 -82 -94 -125 -141
-61 -66 -89 -107 -127 -186 -63 -131 -74 -182 -73 -345 1 -217 56 -388 172
-541 106 -141 241 -229 450 -295 197 -63 229 -65 366 -21 61 19 139 40 175 47
82 15 128 38 213 107 132 108 218 242 282 437 54 168 69 237 60 285 -15 85
-101 323 -148 411 -41 76 -71 114 -147 191 -83 84 -109 103 -191 142 -136 66
-189 77 -370 77 -136 -1 -167 -4 -265 -29z m441 -126 c33 -8 93 -31 132 -51
142 -69 280 -239 333 -410 12 -38 32 -100 46 -137 32 -90 31 -117 -11 -255
-56 -184 -104 -271 -205 -373 -99 -101 -122 -114 -230 -135 -43 -8 -110 -26
-147 -40 -89 -34 -136 -33 -263 6 -182 56 -269 107 -372 219 -79 85 -120 165
-153 295 -27 108 -34 270 -14 356 21 93 85 200 189 315 55 60 100 112 100 116
0 21 173 84 273 99 93 13 259 11 322 -5z"/>
<path d="M6675 11117 c-12 -19 -16 -77 -21 -288 -6 -231 -5 -268 9 -295 28
-54 271 -274 303 -274 22 0 54 38 54 64 0 17 -29 57 -91 127 -127 141 -130
150 -140 422 -6 173 -11 224 -24 243 -21 32 -69 33 -90 1z"/>
<path d="M11664 9920 c-67 -6 -131 -18 -190 -38 -49 -17 -152 -49 -229 -72
-77 -23 -156 -46 -175 -52 -24 -8 -78 -54 -169 -142 -142 -140 -180 -197 -216
-321 -29 -99 -9 -263 48 -405 28 -71 30 -83 31 -215 1 -137 2 -142 34 -209 49
-105 115 -190 203 -262 100 -83 153 -156 180 -248 21 -70 98 -263 145 -362 32
-67 173 -266 232 -327 26 -26 72 -60 102 -75 48 -24 66 -27 145 -26 69 1 102
6 142 23 92 40 123 16 123 -99 0 -58 -4 -69 -33 -106 -65 -81 -141 -133 -259
-178 -73 -27 -163 -81 -218 -130 -19 -17 -51 -41 -70 -52 -19 -11 -68 -40
-108 -64 -94 -55 -197 -166 -281 -302 -73 -117 -167 -338 -181 -425 -6 -32
-22 -134 -36 -228 -25 -163 -64 -355 -104 -516 -11 -41 -26 -124 -35 -182 -8
-59 -22 -122 -31 -140 -30 -59 -141 -211 -184 -252 -71 -68 -160 -182 -212
-273 -27 -47 -73 -113 -102 -146 -28 -34 -77 -92 -108 -131 -94 -116 -163
-182 -197 -190 -18 -4 -62 1 -107 11 -138 30 -218 10 -362 -90 -88 -62 -117
-68 -168 -37 -35 21 -69 99 -159 360 -25 74 -57 155 -72 180 -14 26 -49 114
-78 196 -30 83 -69 189 -89 236 -19 48 -45 122 -57 165 -54 195 -49 184 -124
257 -89 87 -133 118 -236 163 -81 36 -88 37 -189 36 -58 -1 -166 -7 -240 -13
-145 -13 -536 -6 -650 10 -43 7 -113 6 -205 -1 -77 -6 -174 -10 -215 -8 -119
4 -377 4 -470 0 -47 -3 -118 0 -157 4 -90 11 -142 -6 -203 -65 -84 -81 -100
-174 -54 -308 57 -169 118 -327 134 -351 34 -50 57 -106 64 -156 7 -56 82
-266 125 -353 16 -31 41 -96 56 -146 14 -49 43 -119 62 -155 43 -79 103 -251
103 -298 0 -52 -15 -69 -70 -81 -32 -7 -227 -11 -530 -12 l-480 0 -42 23 c-33
18 -49 38 -81 98 -61 118 -145 192 -315 280 -86 44 -158 107 -185 163 -93 188
-206 480 -247 640 -16 62 -38 138 -49 170 -35 101 -53 204 -41 245 34 130 201
613 270 785 17 43 37 113 45 156 22 127 106 316 190 429 82 111 169 188 265
234 96 47 257 145 375 230 92 66 121 76 163 54 65 -34 75 -66 47 -146 -30 -84
-48 -239 -40 -344 9 -129 24 -176 102 -326 80 -152 111 -192 166 -219 68 -33
138 -28 223 14 79 40 118 43 221 19 143 -34 284 1 385 94 71 66 102 116 133
217 29 96 44 118 108 159 100 65 137 124 137 221 0 65 -23 116 -79 178 -20 23
-58 76 -84 118 -55 89 -172 205 -239 237 -26 12 -107 37 -180 56 -73 19 -141
38 -151 41 -21 9 -64 69 -102 145 -27 53 -74 113 -160 205 -47 50 -125 79
-215 79 -61 1 -90 -13 -195 -90 -33 -25 -80 -59 -105 -77 -27 -20 -55 -53 -73
-87 -28 -53 -29 -58 -22 -145 10 -128 8 -155 -18 -193 -34 -51 -338 -256 -437
-296 -57 -23 -106 -52 -150 -92 -19 -17 -89 -68 -156 -112 -66 -44 -145 -98
-175 -121 -30 -22 -82 -50 -115 -61 -34 -12 -86 -36 -115 -54 -30 -18 -115
-70 -189 -115 -193 -119 -288 -188 -307 -224 -25 -49 -21 -113 12 -177 49 -96
114 -271 155 -420 42 -149 173 -555 216 -670 14 -36 33 -103 43 -150 25 -114
124 -379 205 -552 25 -54 36 -91 36 -124 0 -42 -4 -51 -38 -83 -21 -20 -69
-54 -106 -76 -111 -64 -160 -115 -190 -194 -51 -133 -94 -151 -352 -151 -171
0 -185 -1 -204 -20 -26 -26 -25 -54 1 -79 19 -18 42 -20 312 -26 510 -12 2324
-14 2433 -3 73 7 129 6 199 -2 71 -8 444 -11 1329 -10 677 1 1508 0 1846 -1
338 -1 674 -1 745 1 160 4 702 5 965 2 107 -1 234 -1 283 -1 203 2 365 2 762
-1 231 -2 555 -3 720 -2 1205 4 1769 10 1900 20 83 6 214 12 292 12 l143 0 17
26 c15 24 15 29 2 53 -13 23 -23 27 -84 32 -39 4 -120 7 -182 8 -170 2 -184
12 -159 123 8 34 22 98 31 142 22 99 56 140 167 197 138 72 205 178 195 310
-10 158 -147 275 -296 254 -50 -7 -81 9 -81 40 0 19 -48 73 -79 89 -14 7 -54
16 -89 19 -117 12 -127 37 -57 141 74 111 79 154 40 382 -30 171 -44 209 -110
284 -50 58 -121 196 -149 290 -9 30 -19 108 -23 172 -5 104 -4 124 17 187 12
39 35 91 51 116 16 25 29 54 29 65 0 27 -27 50 -60 50 -23 0 -37 -10 -64 -45
-43 -58 -91 -171 -106 -253 -14 -80 3 -281 32 -367 34 -103 103 -238 155 -301
56 -69 55 -67 83 -230 28 -162 27 -200 -9 -255 -102 -154 -163 -212 -206 -195
-23 8 -15 67 20 151 42 101 34 169 -43 365 -60 152 -106 205 -332 383 -42 33
-65 62 -100 127 l-45 85 -9 165 c-15 269 -16 256 37 346 25 44 60 111 78 149
39 88 76 140 156 228 67 73 75 95 43 127 -37 37 -59 26 -161 -78 -80 -81 -104
-113 -144 -192 -26 -52 -65 -121 -87 -153 -80 -117 -80 -120 -73 -365 7 -233
13 -268 68 -377 49 -98 87 -143 182 -215 142 -107 189 -161 236 -271 23 -52
48 -122 57 -157 15 -62 15 -65 -8 -115 -12 -29 -33 -80 -45 -114 -37 -104 -58
-118 -195 -128 -108 -8 -151 -24 -182 -68 -21 -29 -21 -38 -20 -321 2 -349 -1
-369 -81 -451 -61 -62 -62 -63 -327 -110 -107 -20 -242 -47 -300 -60 -163 -37
-237 -47 -260 -35 -23 12 -27 27 -34 132 -7 89 -31 159 -81 236 -20 29 -37 66
-38 80 -2 32 15 41 222 127 74 30 180 84 235 119 56 35 133 80 172 100 39 21
81 46 93 57 24 22 27 57 8 83 -14 19 -33 21 -113 10 -77 -10 -85 2 -112 171
-28 168 -63 302 -107 410 -40 97 -98 282 -121 385 -19 86 -88 266 -112 293
-22 25 -61 18 -85 -15 l-20 -27 40 -109 c23 -59 47 -137 53 -173 17 -90 87
-329 122 -418 48 -119 81 -282 76 -376 -3 -67 -10 -93 -41 -155 -71 -146 -163
-226 -343 -296 -66 -25 -151 -65 -189 -88 -95 -58 -174 -86 -240 -86 -77 0
-106 28 -150 145 -39 104 -60 125 -96 96 -25 -20 -25 -15 7 -236 6 -39 -23
-86 -75 -121 -33 -21 -55 -27 -123 -31 -48 -3 -101 -1 -125 6 -109 30 -213
151 -259 301 -14 47 -45 146 -69 220 -29 88 -48 169 -55 235 -9 75 -22 125
-51 198 -35 88 -40 111 -45 210 -4 62 -17 159 -29 217 -23 100 -23 114 -15
320 10 245 6 260 -54 260 -18 0 -39 -7 -46 -16 -9 -10 -18 -93 -29 -251 -15
-234 -15 -236 7 -342 50 -241 25 -390 -111 -671 -87 -178 -117 -221 -200 -281
-76 -55 -111 -40 -167 70 -33 66 -112 137 -201 182 -113 56 -106 81 44 148 77
34 106 69 89 105 -6 14 -26 29 -46 36 -24 8 -38 19 -42 35 -9 34 13 192 46
330 65 275 95 436 125 655 8 58 23 130 33 160 62 176 186 384 285 477 29 27
92 71 140 98 48 27 116 73 150 102 34 29 91 65 126 80 36 15 107 49 159 76
121 61 153 62 234 7 33 -22 78 -45 100 -51 61 -16 199 -13 265 6 144 42 289
146 371 268 40 60 85 88 126 80 49 -10 248 -115 313 -166 78 -62 313 -202 380
-227 100 -37 128 -58 250 -184 68 -69 130 -126 138 -126 9 0 27 11 41 25 24
24 24 26 9 62 -22 53 -83 130 -178 226 -73 75 -91 88 -172 121 -101 42 -302
162 -385 231 -30 25 -99 68 -153 95 -249 125 -324 181 -364 269 -74 161 -95
232 -106 362 -13 153 -10 159 90 212 92 48 146 97 177 159 31 61 33 108 10
220 l-16 78 32 123 c43 168 49 262 22 368 -11 46 -24 109 -27 139 -13 98 -54
268 -76 311 -28 56 -144 221 -192 275 -25 27 -70 59 -125 87 -48 24 -116 60
-152 79 -222 122 -553 176 -896 148z m491 -168 c142 -23 225 -54 424 -160
l145 -77 68 -95 c38 -52 80 -113 93 -135 24 -40 67 -211 80 -314 3 -30 14 -89
24 -131 15 -61 17 -88 9 -136 -18 -119 -62 -154 -194 -154 -55 0 -100 -7 -142
-21 -90 -30 -106 -24 -132 58 -12 38 -44 110 -71 162 -56 107 -64 162 -28 182
21 11 130 8 211 -7 32 -5 38 -3 54 21 16 25 16 30 3 54 -19 33 -47 47 -165 77
-103 26 -202 30 -312 14 -108 -15 -164 -38 -238 -97 -89 -71 -216 -135 -346
-174 -57 -16 -132 -39 -168 -50 -58 -18 -82 -19 -227 -14 -155 7 -164 8 -205
35 -126 81 -191 176 -210 311 -23 169 5 234 171 398 88 87 129 121 153 126 36
8 200 58 347 106 156 52 414 60 656 21z m57 -918 c32 -17 95 -98 131 -169 37
-75 64 -171 72 -260 7 -68 12 -83 36 -107 22 -22 37 -28 73 -28 40 0 51 5 103
54 64 59 110 86 145 86 47 0 104 -23 134 -55 36 -39 69 -134 59 -173 -16 -65
-153 -152 -239 -152 -39 0 -81 -30 -90 -64 -3 -13 5 -84 19 -156 14 -73 25
-149 25 -169 0 -59 25 -138 90 -291 58 -135 61 -146 54 -199 -9 -81 -36 -135
-97 -194 -125 -122 -307 -173 -434 -122 -52 22 -69 70 -77 220 -9 183 1 214
104 317 43 43 92 102 108 131 17 30 53 84 81 121 57 75 66 119 31 151 -28 25
-65 12 -94 -33 -13 -20 -36 -48 -51 -62 -15 -14 -49 -57 -76 -95 -58 -85 -141
-143 -269 -191 -47 -17 -111 -44 -143 -59 -116 -54 -205 -22 -300 108 -115
156 -140 199 -198 338 -94 225 -119 315 -126 446 l-6 112 36 36 c40 40 75 45
150 19 44 -15 49 -15 73 1 20 13 25 23 22 48 -4 38 -52 70 -135 88 -69 16 -81
24 -67 46 7 12 38 24 90 35 43 9 104 26 136 37 31 12 88 31 126 41 74 21 200
76 267 118 82 52 169 61 237 26z m-1166 -220 c42 -28 54 -64 54 -162 0 -71 -3
-92 -16 -103 -15 -12 -22 -7 -63 37 -45 49 -111 168 -111 199 0 9 5 26 11 37
9 17 17 20 55 14 24 -3 56 -13 70 -22z m-4830 -1195 c33 -9 52 -22 76 -53 17
-22 46 -57 63 -76 18 -19 47 -62 65 -95 57 -105 100 -153 164 -185 33 -17 67
-30 77 -30 28 0 211 -51 244 -68 51 -26 146 -125 187 -195 22 -37 59 -90 84
-118 43 -48 49 -62 44 -104 -3 -34 -28 -52 -169 -127 -75 -39 -165 -89 -201
-111 -347 -212 -565 -337 -589 -337 -15 0 -34 6 -43 13 -20 15 -132 218 -152
274 -36 103 -29 307 16 438 25 75 19 154 -17 231 -14 29 -25 59 -25 66 -1 25
-41 101 -85 160 -38 50 -45 67 -45 105 0 52 2 54 144 158 49 36 95 65 103 65
8 0 34 -5 59 -11z m-1403 -1280 c7 -11 2 -34 -17 -83 -15 -37 -34 -100 -41
-139 -8 -40 -44 -150 -79 -245 -36 -95 -82 -223 -102 -285 -55 -168 -85 -217
-113 -183 -6 7 -26 67 -46 134 -19 67 -47 152 -61 189 -97 260 -100 277 -56
339 37 50 34 48 192 145 74 45 160 97 190 116 60 37 114 42 133 12z m2135 -41
c10 -51 -167 -163 -224 -141 -36 13 -12 43 84 101 98 61 134 71 140 40z m-64
-1003 c72 -14 91 -14 192 1 78 11 143 14 215 10 242 -14 682 -18 863 -6 l188
11 72 -34 c41 -20 105 -63 148 -101 72 -62 77 -70 88 -124 15 -70 49 -174 106
-315 24 -59 62 -161 84 -227 21 -66 51 -137 65 -159 13 -22 42 -91 64 -153 70
-202 99 -281 164 -437 56 -132 64 -158 55 -182 -19 -56 11 -54 -697 -56 -361
-1 -665 -2 -676 -3 -11 -1 -198 1 -415 3 -358 5 -400 7 -450 25 -146 51 -168
76 -229 255 -21 64 -53 139 -70 167 -17 27 -41 88 -55 135 -14 48 -43 126 -65
173 -55 121 -111 270 -111 296 0 45 -28 128 -63 183 -35 58 -92 202 -142 360
-24 76 -25 85 -11 117 25 60 48 68 183 61 65 -3 172 -1 238 3 177 13 174 13
259 -3z m4746 -681 c17 -19 69 -177 115 -348 20 -71 58 -177 85 -236 50 -107
62 -168 38 -188 -32 -25 -61 -22 -195 19 -261 79 -330 69 -588 -81 -214 -124
-244 -133 -465 -134 -190 -1 -220 4 -220 38 0 31 19 46 135 105 55 28 136 78
180 111 44 33 130 86 190 117 138 71 352 202 428 262 64 52 118 122 170 226
55 110 97 146 127 109z m3588 -74 c23 -11 43 -25 44 -32 1 -7 3 -128 5 -268 1
-140 3 -282 4 -315 1 -33 -2 -111 -8 -172 -9 -103 -12 -116 -39 -150 -17 -20
-50 -47 -73 -60 -42 -22 -50 -22 -285 -20 -222 3 -244 5 -281 24 -48 26 -99
77 -116 118 -18 43 -20 776 -2 823 22 57 50 63 305 56 181 -4 232 -2 273 10
57 17 111 12 173 -14z m-4471 -15 c119 -35 213 -140 213 -237 0 -35 -6 -54
-21 -69 -27 -27 -38 -22 -69 36 -53 98 -157 172 -274 194 -76 14 -80 40 -11
75 38 20 97 20 162 1z m4863 -152 c60 -54 59 -152 -2 -210 -42 -39 -150 -96
-174 -91 -42 8 -44 185 -3 258 42 75 122 94 179 43z m-4965 -62 c22 -10 55
-32 73 -49 28 -26 32 -36 32 -81 0 -46 -4 -56 -42 -97 -49 -53 -179 -142 -260
-177 -31 -14 -100 -55 -155 -92 -54 -37 -141 -88 -193 -114 l-95 -46 -262 -3
c-263 -3 -303 1 -303 32 0 23 36 60 106 108 85 59 144 73 218 52 139 -39 320
-56 344 -32 17 17 15 48 -4 69 -15 16 -14 21 14 61 17 24 38 50 47 58 9 7 49
54 90 105 146 182 203 225 300 225 28 0 68 -9 90 -19z m2420 -311 c71 -44 115
-132 115 -232 0 -64 -17 -115 -49 -147 -23 -23 -73 -28 -88 -8 -6 6 -13 53
-15 104 -5 92 -25 148 -86 246 -16 27 -16 29 2 43 28 20 83 17 121 -6z m-256
-95 c67 -34 112 -137 97 -220 -19 -98 -152 -155 -365 -155 -64 0 -164 -5 -224
-12 -92 -10 -130 -9 -261 7 -143 16 -161 17 -262 2 -59 -9 -112 -13 -117 -10
-6 3 -153 6 -328 7 -174 1 -321 4 -325 8 -20 21 22 58 147 131 144 84 226 113
293 104 23 -4 95 -23 161 -43 105 -33 133 -38 225 -38 89 -1 117 3 185 26 44
15 127 39 184 54 58 15 148 44 200 66 200 82 328 106 390 73z"/>
<path d="M12105 9321 c-88 -22 -135 -69 -105 -106 28 -33 228 -2 256 39 37 58
-43 93 -151 67z"/>
<path d="M11755 9181 c-38 -15 -112 -47 -163 -70 -204 -93 -311 -116 -405 -86
-69 21 -91 18 -95 -17 -2 -20 5 -32 30 -50 55 -41 97 -53 183 -52 125 2 260
54 518 199 64 35 68 39 65 69 -3 26 -7 31 -33 33 -16 2 -61 -10 -100 -26z"/>
<path d="M11809 8537 c-54 -15 -105 -50 -114 -78 -4 -11 0 -30 8 -43 15 -22
20 -22 167 -22 145 1 153 2 167 23 22 32 -1 71 -57 99 -59 29 -114 36 -171 21z"/>
<path d="M11362 8304 c-15 -10 -22 -25 -22 -49 0 -38 35 -136 53 -147 26 -16
67 -8 83 17 21 33 10 149 -17 176 -23 23 -67 24 -97 3z"/>
<path d="M11830 8300 c-11 -11 -20 -32 -20 -47 0 -33 28 -112 48 -135 20 -23
64 -23 85 0 29 32 16 164 -19 189 -26 19 -71 16 -94 -7z"/>
<path d="M11540 7968 c-37 -20 -33 -57 9 -85 38 -26 67 -29 106 -11 31 14 34
57 6 82 -26 23 -89 30 -121 14z"/>
<path d="M11745 7704 c-49 -17 -81 -23 -107 -20 -61 10 -88 -34 -48 -74 58
-58 156 -50 231 17 43 39 51 76 20 93 -24 12 -13 14 -96 -16z"/>
<path d="M6280 6933 c-88 -46 -113 -105 -58 -134 26 -14 97 12 144 53 40 35
46 81 15 98 -29 15 -44 13 -101 -17z"/>
<path d="M7990 4840 c-11 -11 -20 -27 -20 -36 0 -25 114 -177 162 -216 24 -19
65 -49 92 -68 27 -18 79 -60 115 -93 36 -33 80 -67 98 -75 29 -14 34 -14 57 2
40 26 33 56 -32 138 -67 84 -106 120 -194 179 -35 23 -97 75 -139 115 -81 78
-105 88 -139 54z"/>
<path d="M7536 4754 c-31 -30 -19 -60 46 -116 34 -29 105 -96 158 -148 415
-409 816 -735 880 -715 56 18 45 81 -22 130 -44 32 -495 442 -538 490 -14 15
-61 55 -105 88 -44 34 -112 91 -150 127 -81 76 -203 160 -233 160 -11 0 -28
-7 -36 -16z"/>
<path d="M6916 3924 c-23 -23 -20 -48 14 -108 33 -58 78 -102 181 -179 35 -26
81 -61 101 -78 43 -37 81 -34 100 7 10 21 8 32 -8 61 -27 52 -99 129 -153 165
-25 17 -74 57 -108 90 -65 61 -97 72 -127 42z"/>
<path d="M9348 7635 c-14 -14 -580 -32 -763 -24 -78 4 -95 1 -132 -18 -89 -48
-110 -121 -73 -259 l23 -85 -17 -111 c-16 -97 -17 -125 -6 -222 10 -88 9 -146
-1 -281 -6 -93 -12 -213 -11 -265 5 -641 7 -673 31 -722 14 -29 36 -56 59 -70
42 -26 -5 -25 577 -18 332 3 377 2 435 -14 72 -20 136 -18 299 8 82 13 99 20
127 47 23 23 37 48 44 83 7 33 12 304 15 746 2 382 7 731 10 775 10 114 -11
297 -39 337 -43 65 -70 72 -286 79 -107 4 -215 10 -240 14 -25 4 -48 4 -52 0z
m279 -163 c133 -8 153 -17 179 -77 21 -50 28 -165 14 -231 -10 -43 -13 -234
-14 -729 -1 -508 -4 -675 -13 -691 -15 -26 -69 -49 -151 -64 -50 -9 -72 -8
-134 7 -64 16 -125 18 -500 18 l-427 0 -27 26 c-36 36 -48 141 -35 306 8 99 7
143 -6 226 -13 86 -13 114 -2 182 7 47 14 211 16 395 6 423 6 467 2 522 -3 41
0 51 22 74 l26 26 310 5 c171 2 332 8 359 13 47 9 124 7 381 -8z"/>
<path d="M9320 7310 c-49 -12 -261 -14 -438 -5 -164 8 -182 4 -182 -41 0 -30
5 -33 107 -48 216 -33 284 -37 418 -25 138 13 247 15 332 8 39 -3 56 0 69 12
22 23 10 57 -24 65 -15 3 -51 14 -80 25 -56 20 -139 23 -202 9z"/>
<path d="M8867 6913 c-17 -26 -44 -61 -59 -77 l-26 -31 -25 23 c-28 26 -54 26
-71 0 -8 -14 -5 -33 13 -85 33 -95 46 -113 81 -113 20 0 34 8 48 28 25 35 132
246 132 260 0 15 -29 42 -46 42 -8 0 -29 -21 -47 -47z"/>
<path d="M9225 6816 c-5 -2 -45 -12 -88 -21 -85 -19 -107 -38 -87 -76 11 -19
19 -20 123 -18 62 1 157 -1 212 -6 95 -7 103 -6 162 19 34 14 69 26 77 26 24
0 39 36 25 61 -10 20 -16 21 -77 14 -92 -10 -184 -10 -267 -2 -38 4 -74 5 -80
3z"/>
<path d="M8846 6530 c-48 -69 -77 -87 -90 -54 -4 10 -16 14 -38 12 -45 -4 -47
-31 -11 -125 19 -52 35 -79 51 -86 42 -19 63 3 137 146 57 111 68 139 59 154
-6 10 -22 19 -35 21 -21 2 -33 -9 -73 -68z"/>
<path d="M9330 6450 c-107 -4 -214 -12 -236 -18 -49 -14 -63 -43 -33 -73 17
-17 36 -19 157 -21 213 -4 271 -1 336 17 81 22 90 28 94 55 5 33 -23 50 -77
48 -25 -1 -134 -4 -241 -8z"/>
<path d="M9315 6100 c-33 -4 -101 -8 -152 -9 -69 -1 -95 -5 -107 -17 -80 -79
185 -112 499 -62 39 6 76 16 83 21 19 15 14 55 -7 67 -22 11 -223 11 -316 0z"/>
<path d="M13322 6295 c-77 -64 -129 -223 -119 -360 6 -70 10 -83 32 -102 62
-54 93 -19 112 124 8 64 27 147 47 204 36 105 35 132 -9 149 -34 13 -29 14
-63 -15z"/>
<path d="M12301 6002 c-39 -73 -65 -296 -51 -443 11 -114 25 -153 58 -157 45
-7 49 8 56 196 4 97 11 224 16 281 5 66 5 111 -1 123 -13 24 -65 24 -78 0z"/>
<path d="M11999 5658 c-16 -30 -6 -347 15 -457 20 -109 62 -255 89 -311 25
-51 53 -62 81 -32 16 19 16 28 -18 198 -37 190 -61 355 -72 494 -3 47 -13 95
-20 108 -19 29 -59 29 -75 0z"/>
</g>
</svg>
